<svg width="56" height="56" viewBox="0 0 56 56" fill="none" xmlns="http://www.w3.org/2000/svg">
<path d="M48.3781 21.678V20.3783C48.3781 9.11542 39.2648 0.000976562 28.0008 0.000976562C16.7647 0.000976562 7.62348 9.14221 7.62348 20.3783V21.678C3.15394 22.9455 -0.260397 27.2137 0.0165264 32.3733C0.31585 37.9496 4.99369 42.3118 10.4979 42.3118C13.2104 42.3118 15.4096 40.1227 15.4096 37.4085V26.1818C15.4096 23.6125 13.4282 21.4942 10.9176 21.2958V20.3784C10.9176 10.9587 18.5811 3.29518 28.0008 3.29518C37.4431 3.29518 45.084 10.9351 45.084 20.3784V21.2955C42.5762 21.4912 40.5919 23.6108 40.5919 26.1819V37.4086C40.5919 39.9776 42.5643 42.082 45.084 42.2932C45.084 46.7513 41.5932 49.8518 37.6777 49.8518H34.0924C33.4335 48.182 31.805 46.9969 29.9039 46.9969H26.0974C23.6151 46.9969 21.5955 49.0165 21.5955 51.4988C21.5955 53.9811 23.6151 56.0008 26.0974 56.0008H29.9039C31.805 56.0008 33.4335 54.8157 34.0924 53.1459H37.6776C43.5778 53.1459 48.378 48.3453 48.378 42.4444V41.9043C52.5807 40.693 55.7414 36.9129 55.9849 32.3734C56.261 27.2315 52.8632 22.9501 48.3781 21.678ZM12.1155 26.1818V37.4085C12.1155 38.2406 11.4758 39.0374 10.3706 39.0164C6.61032 38.9426 3.50706 35.9471 3.30579 32.1968C3.08169 28.0227 6.38775 24.5732 10.5167 24.5732H10.5449C11.4109 24.5765 12.1155 25.2981 12.1155 26.1818ZM29.904 52.7066H26.0976C25.4316 52.7066 24.8897 52.1647 24.8897 51.4987C24.8897 50.8328 25.4316 50.2909 26.0976 50.2909H29.904C30.571 50.2909 31.1134 50.8345 31.1117 51.5019C31.1099 52.1664 30.5688 52.7066 29.904 52.7066ZM52.6956 32.1968C52.4944 35.9471 49.3911 38.9426 45.6309 39.0164C44.5459 39.0383 43.8859 38.2584 43.8859 37.4085V26.1818C43.8859 25.2981 44.5905 24.5765 45.4503 24.5732H45.4846C49.6142 24.5732 52.9198 28.0231 52.6956 32.1968Z" fill="#19BCE4"/>
</svg>
